<svg width="47" height="53" viewBox="0 0 47 53" fill="none" xmlns="http://www.w3.org/2000/svg">
<path d="M23.5 4.96875C19.7236 4.96875 16.032 6.23154 12.8921 8.59742C9.75214 10.9633 7.30484 14.326 5.85968 18.2603C4.41452 22.1947 4.0364 26.5239 4.77314 30.7005C5.50988 34.8772 7.32838 38.7137 9.99869 41.7249C12.669 44.7361 16.0712 46.7867 19.775 47.6175C23.4788 48.4483 27.3179 48.0219 30.8069 46.3923C34.2958 44.7626 37.2778 42.0029 39.3759 38.4621C41.4739 34.9213 42.5938 30.7585 42.5938 26.5C42.5884 20.7914 40.575 15.3184 36.9954 11.2818C33.4158 7.24518 28.5623 4.97478 23.5 4.96875ZM23.5 44.7187C20.3046 44.7187 17.181 43.6502 14.5241 41.6483C11.8672 39.6464 9.79641 36.8011 8.57358 33.472C7.35075 30.143 7.0308 26.4798 7.6542 22.9457C8.27759 19.4116 9.81632 16.1653 12.0758 13.6174C14.3353 11.0695 17.2141 9.33429 20.3481 8.63132C23.4821 7.92834 26.7306 8.28914 29.6827 9.66807C32.6349 11.047 35.1582 13.3821 36.9334 16.3782C38.7087 19.3743 39.6563 22.8967 39.6563 26.5C39.6514 31.3302 37.9477 35.9611 34.9188 39.3765C31.89 42.792 27.7834 44.7133 23.5 44.7187ZM31.8829 25.3282C32.0195 25.482 32.1278 25.6647 32.2017 25.8658C32.2756 26.0668 32.3137 26.2823 32.3137 26.5C32.3137 26.7177 32.2756 26.9332 32.2017 27.1342C32.1278 27.3353 32.0195 27.518 31.8829 27.6718L26.0079 34.2968C25.7323 34.6076 25.3585 34.7822 24.9688 34.7822C24.579 34.7822 24.2052 34.6076 23.9296 34.2968C23.654 33.986 23.4992 33.5645 23.4992 33.125C23.4992 32.6855 23.654 32.264 23.9296 31.9532L27.2986 28.1562H16.1563C15.7667 28.1562 15.3931 27.9818 15.1177 27.6711C14.8423 27.3605 14.6875 26.9393 14.6875 26.5C14.6875 26.0607 14.8423 25.6395 15.1177 25.3289C15.3931 25.0182 15.7667 24.8437 16.1563 24.8437H27.2986L23.9296 21.0468C23.654 20.736 23.4992 20.3145 23.4992 19.875C23.4992 19.4355 23.654 19.014 23.9296 18.7032C24.2052 18.3924 24.579 18.2178 24.9688 18.2178C25.3585 18.2178 25.7323 18.3924 26.0079 18.7032L31.8829 25.3282Z" fill="#FF5500"/>
</svg>
