<svg width="23" height="21" viewBox="0 0 23 21" fill="none" xmlns="http://www.w3.org/2000/svg">
<path d="M4.58058 19.0877L4.56255 19.0741C3.30009 18.1217 2.31694 16.943 1.60918 15.5378L1.60859 15.5366C0.868822 14.0774 0.5 12.4683 0.5 10.7049C0.5 9.26856 0.81778 7.87704 1.4617 6.5298L1.46171 6.5298L1.46264 6.52783C2.34244 4.66631 3.6538 3.20088 5.40457 2.12246L5.40583 2.12168C7.11676 1.06079 9.02967 0.521554 11.1571 0.5006L11.1572 0.500599C13.219 0.479743 15.1022 1.0038 16.8227 2.06948C18.5502 3.13954 19.854 4.54169 20.7409 6.28378L20.7418 6.28559C21.4832 7.72727 21.8491 9.25336 21.8491 10.8706C21.8491 12.6913 21.3899 14.3886 20.4717 15.9793L20.4717 15.9793C19.7637 17.2061 18.8576 18.2354 17.7511 19.0791C17.6286 19.1657 16.9572 19.6226 16.1914 19.8489C15.8032 19.9636 15.4288 20.0073 15.1064 19.9437C14.8088 19.8849 14.5319 19.7313 14.3036 19.3952C13.5517 17.9002 13.2893 16.3182 14.0774 14.864C14.1994 14.6411 14.3519 14.4332 14.5262 14.2521L14.5282 14.25C14.9303 13.8274 15.3278 13.5933 15.8459 13.5246C16.0155 13.5021 16.2335 13.5091 16.5264 13.5184L16.54 13.5188C16.8173 13.5276 17.1521 13.5373 17.4699 13.4951C17.7883 13.4528 18.1468 13.352 18.4388 13.0955C18.7434 12.8279 18.913 12.4469 18.9526 11.9716L18.9526 11.9715C18.9705 11.7558 18.9535 11.5242 18.8822 11.2966L18.8824 11.2966L18.8782 11.2844L18.8661 11.2489C18.7966 11.0354 18.6847 10.8363 18.5422 10.6669C18.4019 10.4993 18.2267 10.3591 18.0428 10.2602L18.0428 10.2602L18.0379 10.2576C17.7213 10.0918 17.4084 10.027 17.1004 10.0676C16.7994 10.1073 16.5527 10.2412 16.3542 10.3856C16.1727 10.5176 16.0054 10.6788 15.8656 10.8135C15.8565 10.8223 15.8476 10.8309 15.8388 10.8393C15.6826 10.9896 15.5544 11.1098 15.4227 11.2017L15.4208 11.203C15.1936 11.3631 15.01 11.4548 14.8539 11.4718C14.6523 11.4904 14.552 11.4207 14.5267 11.3901C14.5168 11.3781 14.5091 11.3638 14.508 11.3359C14.5067 11.3044 14.5138 11.2363 14.571 11.1285C14.6926 10.9031 14.8317 10.7082 14.9902 10.5602C15.1098 10.4487 15.2551 10.3484 15.4353 10.2277C15.4465 10.2202 15.4579 10.2126 15.4694 10.2049C15.631 10.0968 15.8237 9.96788 15.9929 9.81787C16.1799 9.65213 16.3637 9.43963 16.4756 9.15519C16.5893 8.86636 16.6127 8.54442 16.5441 8.18656L16.5442 8.18656L16.5429 8.18016C16.503 7.98602 16.4312 7.77165 16.3045 7.57546C16.1883 7.39141 16.0348 7.22269 15.8563 7.0922L15.8564 7.09209L15.8469 7.0855L15.8156 7.0637L15.8157 7.06365L15.8089 7.05908C15.625 6.93542 15.4127 6.84633 15.1879 6.80726C14.9729 6.76915 14.7567 6.77636 14.5522 6.81867L14.5521 6.81857L14.5425 6.82076C14.0886 6.92405 13.7647 7.15598 13.5498 7.47842C13.3497 7.77851 13.2668 8.12461 13.2145 8.41566C13.1896 8.5538 13.1722 8.67175 13.1561 8.78141C13.1329 8.93856 13.1122 9.07867 13.0758 9.2367C13.0207 9.47623 12.9493 9.63982 12.8479 9.75465L12.8476 9.75491C12.7839 9.8271 12.7004 9.90774 12.6101 9.97675C12.5172 10.0478 12.4358 10.0922 12.3758 10.1121C12.3653 10.1156 12.3568 10.1179 12.35 10.1195C12.3411 10.1065 12.3289 10.0854 12.3148 10.0524C12.2677 9.93962 12.242 9.79193 12.238 9.62247C12.2383 9.39029 12.2623 9.17245 12.3203 8.97606L12.3208 8.97426C12.3686 8.81028 12.4396 8.64526 12.5251 8.44665L12.5257 8.4453L12.5264 8.44366C12.6067 8.25693 12.7025 8.03453 12.7638 7.8045C12.8269 7.56781 12.8616 7.2968 12.8032 7.00664C12.7441 6.71297 12.5977 6.43908 12.3605 6.18464C12.2096 6.01912 12.0243 5.88933 11.8333 5.8024L11.8333 5.80237L11.8277 5.7999C11.6331 5.71424 11.4222 5.66373 11.2023 5.65742L11.1951 5.65721H11.1879H11.1745C10.9397 5.65721 10.716 5.71685 10.5267 5.7976L10.5267 5.79757L10.5214 5.7999C10.31 5.89301 10.1316 6.03294 9.99255 6.18033L9.99099 6.18201C9.75241 6.43719 9.60515 6.71195 9.54585 7.00664C9.48746 7.2968 9.52213 7.56781 9.58526 7.8045C9.6466 8.03451 9.7423 8.2569 9.82266 8.44363L9.82338 8.4453L9.82395 8.44663C9.90943 8.64525 9.98044 8.81027 10.0282 8.97426L10.0288 8.97606C10.0886 9.17846 10.1149 9.39749 10.1112 9.61952L10.1111 9.61952V9.62792C10.1111 9.78376 10.084 9.93334 10.0343 10.0524C10.02 10.0857 10.0077 10.1069 9.99882 10.1198C9.99168 10.1182 9.98257 10.1157 9.97128 10.112C9.9111 10.0921 9.82966 10.0477 9.73738 9.97701C9.64765 9.9083 9.56535 9.82831 9.50367 9.75745L9.50207 9.75563C9.39999 9.6395 9.32849 9.47464 9.2733 9.23446C9.23692 9.07609 9.21626 8.93594 9.1931 8.77889C9.1769 8.66901 9.15949 8.55085 9.13461 8.41239C9.08232 8.12137 8.99934 7.77525 8.79897 7.47547C8.58399 7.15383 8.26046 6.9232 7.8078 6.82104C7.59577 6.77133 7.37129 6.76383 7.14866 6.80964C6.94218 6.85126 6.73171 6.93028 6.54018 7.05908L6.54014 7.05903L6.53343 7.0637L6.50213 7.0855L6.50205 7.08539L6.49274 7.0922C6.31331 7.22342 6.15905 7.39328 6.04262 7.57852L6.0426 7.57851L6.0401 7.58257C5.92648 7.76723 5.84822 7.97534 5.80621 8.18016L5.80617 8.18015L5.80487 8.18692C5.73639 8.54583 5.76009 8.86843 5.87428 9.1576C5.98674 9.44241 6.17127 9.65476 6.35857 9.82014C6.52686 9.96874 6.71837 10.0966 6.8788 10.2037C6.89139 10.2121 6.90379 10.2203 6.91597 10.2285C7.09579 10.3488 7.23992 10.4485 7.35779 10.5592L7.35889 10.5602C7.51736 10.7082 7.65647 10.9031 7.778 11.1284C7.8354 11.2365 7.84233 11.3044 7.84107 11.3352C7.83997 11.3623 7.83262 11.3761 7.82284 11.3879C7.79722 11.4188 7.69506 11.4894 7.48977 11.4713C7.34116 11.4579 7.16235 11.3679 6.92822 11.203L6.92812 11.2029C6.7956 11.1097 6.6667 10.9882 6.50991 10.8371C6.50198 10.8295 6.49395 10.8217 6.48583 10.8139C6.34476 10.6778 6.17606 10.5151 5.99286 10.3821C5.794 10.2377 5.5467 10.1039 5.24549 10.065C4.93763 10.0252 4.62552 10.0912 4.31056 10.2579C4.11334 10.3608 3.94255 10.5045 3.80622 10.6677L4.18989 10.9883M4.58058 19.0877L6.64033 11.6118C6.46544 11.4887 6.30496 11.334 6.14643 11.1812C5.69293 10.7441 5.25553 10.3225 4.54315 10.7005C4.409 10.7703 4.28827 10.8706 4.18989 10.9883M4.58058 19.0877C4.72488 19.1883 5.41928 19.6556 6.19805 19.8703C6.61824 19.9862 7.01397 20.0143 7.34365 19.9154C7.64988 19.8235 7.95291 19.6067 8.18509 19.1112C8.82708 17.6974 9.01358 16.227 8.27178 14.8642C8.15154 14.6445 7.99464 14.4345 7.81905 14.2481C7.42349 13.8284 7.02236 13.5934 6.50303 13.5245L6.50082 13.5242C6.32993 13.5008 6.10923 13.5074 5.81176 13.5163L5.80811 13.5164C5.53123 13.5247 5.19655 13.534 4.8792 13.4918C4.56119 13.4496 4.20286 13.3492 3.91088 13.0936C3.60605 12.8266 3.43612 12.4463 3.3965 11.9717L3.39649 11.9715C3.37777 11.7465 3.40292 11.5203 3.46309 11.3091L3.46664 11.2967L3.47083 11.2844L3.48295 11.249M4.58058 19.0877L3.94396 11.4461L3.95737 11.4069M4.18989 10.9883C4.08704 11.1104 4.00656 11.2543 3.95737 11.4069M4.18989 10.9883L3.80749 10.6662C3.66466 10.8357 3.55255 11.0351 3.48295 11.249M3.95737 11.4069L3.48425 11.2452L3.48295 11.249M3.95737 11.4069L3.48148 11.2535C3.48197 11.252 3.48246 11.2505 3.48295 11.249M15.7087 11.6118C15.885 11.4889 16.0463 11.3336 16.2056 11.1802C16.6568 10.7459 17.0922 10.3268 17.8059 10.7005C17.9356 10.7703 18.0608 10.8706 18.1592 10.9883C18.262 11.1104 18.3425 11.2543 18.3917 11.4069L18.4051 11.4461C18.4543 11.6031 18.4677 11.7688 18.4543 11.9301C18.3588 13.0771 17.3717 13.0453 16.5137 13.0177C16.2464 13.0091 15.9916 13.0009 15.7803 13.0289C15.123 13.1161 14.6266 13.4213 14.166 13.9053C13.9603 14.1189 13.7815 14.3631 13.6384 14.6247C12.7351 16.2903 13.0705 18.0693 13.8709 19.6476C15.1006 21.5182 17.8149 19.6476 18.0474 19.482C19.21 18.5968 20.1624 17.5155 20.9047 16.2293C21.8661 14.5637 22.3491 12.7803 22.3491 10.8706C22.3491 9.17447 21.9645 7.56992 21.1864 6.05693C20.2564 4.23001 18.888 2.76063 17.086 1.64442C15.2839 0.528208 13.3075 -0.0211769 11.1522 0.000624103L15.7087 11.6118ZM15.7087 11.6118C15.4673 11.7819 15.1945 11.9388 14.9038 11.9693L15.7087 11.6118ZM6.81919 7.47399L6.78789 7.49579C6.66269 7.58736 6.5509 7.70944 6.46594 7.84461C6.38545 7.97541 6.32732 8.12802 6.29601 8.28063L6.81919 7.47399ZM9.98381 10.1374C9.98376 10.1373 9.98465 10.1364 9.98661 10.1351C9.98484 10.1368 9.98386 10.1375 9.98381 10.1374ZM10.0183 10.1227C10.0193 10.1226 10.0199 10.1226 10.0199 10.1226C10.02 10.1226 10.0194 10.1227 10.0183 10.1227ZM11.8408 8.83437C11.8973 8.64053 11.9788 8.45107 12.0594 8.26398C12.3104 7.68093 12.5514 7.12094 11.9928 6.52347C11.89 6.41011 11.7603 6.31854 11.6262 6.2575C11.4875 6.19646 11.34 6.16157 11.1879 6.15721H11.1745C11.0225 6.15721 10.866 6.19646 10.7229 6.2575C10.5843 6.31854 10.4591 6.41447 10.3562 6.52347C9.79765 7.12095 10.0387 7.68094 10.2897 8.26398C10.3702 8.45107 10.4518 8.64053 10.5083 8.83437C10.5843 9.09162 10.6156 9.36195 10.6111 9.62792L11.8408 8.83437ZM12.3281 10.1226C12.3281 10.1226 12.3286 10.1226 12.3297 10.1227C12.3286 10.1227 12.3281 10.1226 12.3281 10.1226ZM12.3626 10.1355C12.3646 10.1368 12.3654 10.1377 12.3654 10.1378C12.3654 10.1379 12.3644 10.1372 12.3626 10.1355ZM14.6534 7.3083C13.8556 7.48984 13.7569 8.14798 13.6555 8.82403C13.5864 9.28464 13.5161 9.75357 13.2225 10.0857L14.6534 7.3083ZM16.053 8.28063C16.0217 8.12802 15.9681 7.97541 15.8831 7.84461C15.7982 7.70944 15.6864 7.58736 15.5612 7.49579L15.5299 7.47399L16.053 8.28063Z" fill="black" stroke="black"/>
</svg>
