<?xml version="1.0" encoding="utf-8"?>
<!-- Generator: Adobe Illustrator 26.0.2, SVG Export Plug-In . SVG Version: 6.00 Build 0)  -->
<svg version="1.1" id="레이어_1" xmlns="http://www.w3.org/2000/svg" xmlns:xlink="http://www.w3.org/1999/xlink" x="0px"
	 y="0px" viewBox="0 0 430.7 327.64" style="enable-background:new 0 0 430.7 327.64;" xml:space="preserve">
<style type="text/css">
	.st0{fill-rule:evenodd;clip-rule:evenodd;}
	.st1{fill-rule:evenodd;clip-rule:evenodd;fill:#41DD00;}
	.st2{fill-rule:evenodd;clip-rule:evenodd;fill:none;stroke:#000000;stroke-width:0.25;stroke-miterlimit:10;}
	.st3{fill:#41DD00;}
	.st4{fill-rule:evenodd;clip-rule:evenodd;fill:#5F0BCE;}
	.st5{fill:#FFFFFF;}
	.st6{fill:none;stroke:#000000;stroke-miterlimit:10;}
	.st7{fill:#FF5500;}
	.st8{fill-rule:evenodd;clip-rule:evenodd;fill:#FF5500;}
	.st9{fill:#606060;}
	.st10{fill:none;stroke:#606060;stroke-width:0.25;stroke-miterlimit:10;}
</style>
<path class="st7" d="M134.42,243.65c-11.33-8.78-20.19-19.65-26.57-32.63c-6.66-13.49-9.98-28.31-9.98-44.46
	c0-13.31,2.88-26.18,8.65-38.6c7.9-17.13,19.7-30.66,35.41-40.6c15.35-9.76,32.52-14.73,51.51-14.91
	c18.46-0.18,35.41,4.64,50.85,14.44c15.44,9.81,27.15,22.74,35.14,38.8c6.66,13.31,9.98,27.42,9.98,42.33
	c0,16.77-4.13,32.48-12.38,47.12c-6.37,11.3-14.53,20.82-24.49,28.58c-1.99,1.45-25.24,17.89-35.8,1.44
	c-6.84-13.88-9.74-29.51-1.98-44.15c1.22-2.31,2.76-4.44,4.51-6.32c3.93-4.25,8.21-6.93,13.85-7.71c7.61-1.05,21.83,3.55,22.92-9.64
	c0.12-1.42-0.01-2.89-0.4-4.26l-0.1-0.34c-0.43-1.35-1.13-2.62-1.99-3.69c-0.84-1.04-1.9-1.9-3.04-2.51
	c-8.26-4.45-12.2,3.86-17.98,8.03c-2.07,1.5-4.41,2.89-6.88,3.13c-5.47,0.53-9.74-3.48-6.62-9.45c1.18-2.26,2.64-4.42,4.43-6.14
	c5.23-5.03,13.87-6.96,12.04-16.84c-0.25-1.35-0.74-2.68-1.45-3.83c-0.73-1.19-1.68-2.25-2.77-3.05l-0.28-0.2
	c-1.11-0.76-2.39-1.29-3.69-1.54c-1.26-0.24-2.58-0.2-3.82,0.09c-11.49,2.68-6.04,17.2-12.25,24.43c-2.83,3.29-9.02,7.99-11.74,1.43
	c-0.7-1.69-0.98-3.59-0.99-5.44c-0.02-2.35,0.24-4.73,0.88-6.97c2-7.02,7.61-13.37,1.3-20.31c-0.9-0.98-1.98-1.8-3.15-2.35
	c-1.17-0.54-2.47-0.86-3.74-0.9l-0.12,0c-1.32,0.02-2.65,0.34-3.87,0.9c-1.17,0.54-2.26,1.36-3.15,2.35
	c-6.32,6.93-0.7,13.28,1.3,20.31c0.64,2.24,0.9,4.63,0.88,6.97c-0.02,1.85-0.29,3.75-0.99,5.44c-2.72,6.56-8.91,1.87-11.74-1.43
	c-6.21-7.23-0.76-21.75-12.25-24.43c-1.25-0.29-2.57-0.33-3.82-0.09c-1.3,0.25-2.58,0.77-3.69,1.54l-0.28,0.2
	c-1.09,0.8-2.04,1.86-2.77,3.05c-0.7,1.15-1.2,2.48-1.45,3.83c-1.82,9.88,6.81,11.82,12.04,16.84c1.8,1.73,3.25,3.88,4.43,6.14
	c3.11,5.97-1.15,9.98-6.62,9.45c-2.48-0.24-4.81-1.63-6.88-3.13c-5.78-4.17-9.72-12.48-17.98-8.03c-1.14,0.62-2.2,1.48-3.04,2.51
	c-0.87,1.07-1.57,2.35-1.99,3.69l-0.1,0.34c-0.39,1.36-0.52,2.84-0.4,4.26c1.09,13.19,15.31,8.59,22.92,9.64
	c5.63,0.78,9.92,3.46,13.85,7.71c1.74,1.88,3.28,4.01,4.51,6.32c7.22,13.63,5.21,28.13-0.63,41.26
	C162.05,263.9,135.4,244.38,134.42,243.65L134.42,243.65z"/>
<polygon class="st7" points="380.7,190.28 301.41,190.28 340.65,142.05 "/>
</svg>
