<svg width="23" height="21" viewBox="0 0 23 21" fill="none" xmlns="http://www.w3.org/2000/svg">
<path d="M4.26144 19.4732C2.93784 18.4748 1.9049 17.2365 1.16262 15.7627C0.38456 14.2279 0 12.5405 0 10.7049C0 9.19191 0.335371 7.72688 1.01058 6.31418C1.93173 4.36518 3.30898 2.82603 5.14234 1.69674C6.93545 0.58489 8.93873 0.0224251 11.1522 0.000624103C13.3075 -0.0211769 15.2839 0.528208 17.086 1.64442C18.888 2.76063 20.2564 4.23001 21.1864 6.05693C21.9645 7.56992 22.3491 9.17447 22.3491 10.8706C22.3491 12.7803 21.8661 14.5637 20.9047 16.2293C20.1624 17.5155 19.21 18.5968 18.0474 19.482C17.8149 19.6476 15.1006 21.5182 13.8709 19.6476C13.0705 18.0693 12.7351 16.2903 13.6384 14.6247C13.7815 14.3631 13.9603 14.1189 14.166 13.9053C14.6266 13.4213 15.123 13.1161 15.7803 13.0289C16.6701 12.9111 18.3291 13.4344 18.4543 11.9301C18.4677 11.7688 18.4543 11.6031 18.4051 11.4461L18.3917 11.4069C18.3425 11.2543 18.262 11.1104 18.1592 10.9883C18.0608 10.8706 17.9356 10.7703 17.8059 10.7005C16.8401 10.1947 16.3839 11.1409 15.7087 11.6118C15.4673 11.7819 15.1945 11.9388 14.9038 11.9693C14.2644 12.0304 13.7681 11.5726 14.1303 10.8924C14.2689 10.6351 14.4388 10.391 14.649 10.1947C15.2616 9.62356 16.2677 9.4012 16.053 8.28063C16.0217 8.12802 15.9681 7.97541 15.8831 7.84461C15.7982 7.70944 15.6864 7.58736 15.5612 7.49579L15.5299 7.47399C15.4002 7.38679 15.2526 7.32574 15.1006 7.29958C14.953 7.27342 14.801 7.27778 14.6534 7.3083C13.312 7.61352 13.9469 9.26603 13.2225 10.0857C12.8916 10.4607 12.1717 10.9927 11.8542 10.2471C11.7737 10.0552 11.7424 9.83721 11.738 9.62792C11.738 9.36195 11.7648 9.09162 11.8408 8.83437C12.0733 8.03646 12.7307 7.31266 11.9928 6.52347C11.89 6.41011 11.7603 6.31854 11.6262 6.2575C11.4875 6.19646 11.34 6.16157 11.1879 6.15721H11.1745C11.0225 6.15721 10.866 6.19646 10.7229 6.2575C10.5843 6.31854 10.4591 6.41447 10.3562 6.52347C9.61842 7.31266 10.2757 8.03646 10.5083 8.83437C10.5843 9.09162 10.6156 9.36195 10.6111 9.62792C10.6111 9.83721 10.5753 10.0552 10.4948 10.2471C10.1774 10.9927 9.45297 10.4607 9.12654 10.0857C8.40214 9.26167 9.03711 7.60916 7.69563 7.3083C7.54807 7.27342 7.39603 7.26906 7.24847 7.29958C7.09643 7.3301 6.94887 7.38679 6.81919 7.47399L6.78789 7.49579C6.66269 7.58736 6.5509 7.70944 6.46594 7.84461C6.38545 7.97541 6.32732 8.12802 6.29601 8.28063C6.08138 9.40556 7.09196 9.62356 7.7001 10.1947C7.91026 10.391 8.08018 10.6351 8.2188 10.8924C8.581 11.5726 8.08465 12.026 7.44522 11.9693C7.15456 11.9432 6.8818 11.7819 6.64033 11.6118C5.96512 11.1366 5.50454 10.1904 4.54315 10.7005C4.409 10.7703 4.28827 10.8706 4.18989 10.9883C4.08704 11.1104 4.00656 11.2543 3.95737 11.4069L3.94396 11.4461C3.89924 11.6031 3.88135 11.7688 3.89477 11.9301C4.01997 13.43 5.67893 12.9068 6.56878 13.0289C7.22611 13.1161 7.72693 13.4213 8.18303 13.9053C8.38425 14.1189 8.56759 14.3631 8.71068 14.6247C9.55581 16.1769 9.31882 17.8251 8.63914 19.3206C7.48993 21.7798 4.38217 19.5604 4.26591 19.4776L4.26144 19.4732Z" fill="#2D2927"/>
</svg>
